<svg xmlns="http://www.w3.org/2000/svg" viewBox="0 0 1440 620" preserveAspectRatio="xMidYMid slice" role="img" aria-labelledby="title desc">
  <title id="title">Premium mortgage lending footer background</title>
  <desc id="desc">Abstract architectural lines, document panels, and soft teal and pink light accents for a mortgage lending website footer.</desc>
  <defs>
    <linearGradient id="base" x1="0" x2="1" y1="0" y2="1">
      <stop offset="0" stop-color="#171216" />
      <stop offset="0.48" stop-color="#241920" />
      <stop offset="1" stop-color="#0f0d10" />
    </linearGradient>
    <linearGradient id="tealLine" x1="0" x2="1" y1="0" y2="0">
      <stop offset="0" stop-color="#5eaeb8" stop-opacity="0" />
      <stop offset="0.42" stop-color="#aee8ee" stop-opacity="0.82" />
      <stop offset="1" stop-color="#5eaeb8" stop-opacity="0" />
    </linearGradient>
    <linearGradient id="pinkLine" x1="0" x2="1" y1="0" y2="0">
      <stop offset="0" stop-color="#d94f8c" stop-opacity="0" />
      <stop offset="0.55" stop-color="#d94f8c" stop-opacity="0.72" />
      <stop offset="1" stop-color="#f7dce9" stop-opacity="0" />
    </linearGradient>
    <radialGradient id="pinkGlow" cx="50%" cy="50%" r="50%">
      <stop offset="0" stop-color="#d94f8c" stop-opacity="0.32" />
      <stop offset="1" stop-color="#d94f8c" stop-opacity="0" />
    </radialGradient>
    <radialGradient id="tealGlow" cx="50%" cy="50%" r="50%">
      <stop offset="0" stop-color="#aee8ee" stop-opacity="0.26" />
      <stop offset="1" stop-color="#aee8ee" stop-opacity="0" />
    </radialGradient>
    <filter id="softBlur" x="-40%" y="-40%" width="180%" height="180%">
      <feGaussianBlur stdDeviation="34" />
    </filter>
  </defs>

  <rect width="1440" height="620" fill="url(#base)" />
  <circle cx="1110" cy="120" r="240" fill="url(#pinkGlow)" filter="url(#softBlur)" />
  <circle cx="250" cy="500" r="270" fill="url(#tealGlow)" filter="url(#softBlur)" />

  <g opacity="0.36" stroke="#ffffff" stroke-width="1">
    <path d="M0 118h1440" opacity="0.12" />
    <path d="M0 292h1440" opacity="0.1" />
    <path d="M0 466h1440" opacity="0.08" />
    <path d="M180 0v620" opacity="0.08" />
    <path d="M540 0v620" opacity="0.07" />
    <path d="M900 0v620" opacity="0.07" />
    <path d="M1260 0v620" opacity="0.08" />
  </g>

  <g fill="none" stroke-linecap="round" stroke-linejoin="round">
    <path d="M72 440C214 335 356 304 498 348c124 38 213 108 356 73 116-28 190-107 322-91 70 8 132 38 192 76" stroke="url(#tealLine)" stroke-width="5" />
    <path d="M108 492c164-78 310-92 438-42 123 48 220 91 354 43 100-36 185-91 321-73" stroke="url(#pinkLine)" stroke-width="3" />
    <path d="M178 354 392 208l214 146 214-146 214 146 214-146" stroke="#f7dce9" stroke-opacity="0.16" stroke-width="3" />
    <path d="M212 354 392 232l180 122m282 0 180-122 180 122" stroke="#aee8ee" stroke-opacity="0.2" stroke-width="2" />
  </g>

  <g transform="translate(805 132)" opacity="0.72">
    <rect x="0" y="0" width="330" height="230" rx="18" fill="#ffffff" fill-opacity="0.045" stroke="#ffffff" stroke-opacity="0.12" />
    <rect x="30" y="36" width="126" height="12" rx="6" fill="#aee8ee" fill-opacity="0.5" />
    <rect x="30" y="72" width="238" height="8" rx="4" fill="#ffffff" fill-opacity="0.22" />
    <rect x="30" y="100" width="204" height="8" rx="4" fill="#ffffff" fill-opacity="0.16" />
    <rect x="30" y="128" width="254" height="8" rx="4" fill="#ffffff" fill-opacity="0.18" />
    <path d="M44 184h242" stroke="#d94f8c" stroke-opacity="0.44" stroke-width="4" stroke-linecap="round" />
    <circle cx="266" cy="46" r="22" fill="#d94f8c" fill-opacity="0.18" stroke="#d94f8c" stroke-opacity="0.42" />
  </g>

  <g transform="translate(240 132)" fill="none" opacity="0.72" stroke-linecap="round" stroke-linejoin="round">
    <path d="M150 22 24 122v172h252V122L150 22Z" stroke="#ffffff" stroke-opacity="0.13" stroke-width="2" />
    <path d="M150 68 68 132v116h164V132L150 68Z" stroke="#aee8ee" stroke-opacity="0.34" stroke-width="3" />
    <path d="M104 248v-72c0-25 20-45 46-45s46 20 46 45v72" stroke="#d94f8c" stroke-opacity="0.34" stroke-width="3" />
  </g>

  <g opacity="0.5">
    <circle cx="650" cy="164" r="3" fill="#aee8ee" />
    <circle cx="704" cy="206" r="2.5" fill="#d94f8c" />
    <circle cx="1192" cy="308" r="3.5" fill="#aee8ee" />
    <circle cx="1238" cy="254" r="2.5" fill="#f7dce9" />
    <circle cx="162" cy="238" r="3" fill="#d94f8c" />
  </g>
</svg>
